<svg class="svg-logo" style="height:auto" viewBox="0 0 630 430" xmlns="http://www.w3.org/2000/svg"><rect width="100%" height="100%" rx="0" ry="0" fill="rgba(96, 17, 2, 1)"/><g data-element="wrapper"><g data-element="icon"><path d="M160.855 219.298a7.753 7.753 0 0 0-1.408-.112c-2.646.032-5.205-.924-7.076-2.795l-5.893-5.893c-1.868-1.869-2.83-4.424-2.794-7.066a7.769 7.769 0 0 0-.116-1.437c-.538-3.082-3.038-5.555-6.127-6.052a7.496 7.496 0 0 0-8.633 8.618c.492 3.09 2.962 5.596 6.044 6.137.494.087.98.125 1.455.118 2.64-.038 5.19.928 7.057 2.795l5.642 5.642a10.4 10.4 0 0 1 3.046 7.381v.076c.014 2.654-.893 5.228-2.77 7.105l-5.942 5.942c-1.877 1.877-4.451 2.783-7.105 2.77h-.076c-2.655.013-5.23-.893-7.106-2.77l-5.943-5.943c-1.852-1.852-2.817-4.384-2.77-7.003a7.747 7.747 0 0 0-.115-1.475c-.538-3.082-3.038-5.555-6.127-6.051a7.496 7.496 0 0 0-8.632 8.618c.492 3.09 2.962 5.596 6.044 6.138a7.734 7.734 0 0 0 1.491.117c2.616-.051 5.145.92 6.995 2.77l5.946 5.945c1.853 1.853 2.816 4.387 2.77 7.007a7.756 7.756 0 0 0 .113 1.457c.555 3.216 3.247 5.742 6.489 6.113a7.49 7.49 0 0 0 8.37-7.436v-.038c-.013-2.654.894-5.228 2.77-7.105l5.942-5.942c1.877-1.876 4.45-2.783 7.105-2.77h.038a7.49 7.49 0 0 0 7.436-8.376c-.373-3.243-2.904-5.933-6.12-6.485z" fill="#7f97bd"/><path d="M105.416 204.194a7.49 7.49 0 0 1 7.439-8.352h.037a10.403 10.403 0 0 0 7.382-3.046l5.641-5.642c1.87-1.869 2.83-4.425 2.795-7.069a7.763 7.763 0 0 1 .115-1.425c.534-3.083 3.032-5.559 6.12-6.058a7.496 7.496 0 0 1 8.64 8.624c-.496 3.091-2.97 5.594-6.053 6.132a7.754 7.754 0 0 1-1.439.116c-2.641-.036-5.196.926-7.064 2.794l-5.64 5.64a10.405 10.405 0 0 0-3.048 7.383v.076c-.013 2.655.894 5.23 2.771 7.107l5.942 5.942c1.855 1.854 4.392 2.814 7.014 2.77a7.73 7.73 0 0 1 1.45.113c3.085.532 5.563 3.03 6.064 6.119a7.496 7.496 0 0 1-8.631 8.64c-3.09-.498-5.591-2.973-6.126-6.057a7.74 7.74 0 0 1-.114-1.464c.046-2.62-.917-5.154-2.77-7.006l-5.946-5.946c-1.85-1.85-4.379-2.82-6.995-2.77a7.71 7.71 0 0 1-1.482-.116c-3.216-.561-5.739-3.26-6.102-6.505zm54.123 6.623a7.487 7.487 0 1 0 0-14.974 7.487 7.487 0 0 0 0 14.974z" fill="#efd143"/></g><text transform="translate(181.37 240.5)" dx="0 0 0 0 0 0 0 0 0 0" fill="rgba(254, 242, 199, 1)" font-family="Barlow Bold" font-size="64" data-element="company-name">TechSnacks</text></g></svg>