<svg xmlns="http://www.w3.org/2000/svg" version="1.1" xmlns:xlink="http://www.w3.org/1999/xlink" xmlns:svgjs="http://svgjs.com/svgjs" width="630" height="430"><svg class="svg-logo" style="height:auto" viewBox="0 0 630 430" xmlns="http://www.w3.org/2000/svg"><rect width="100%" height="100%" rx="0" ry="0" fill="rgba(96, 17, 2, 1)"></rect><g data-element="wrapper"><g data-element="icon"><path d="M396.375 229.183a25.583 25.583 0 0 0-4.648-.37c-8.73.106-17.175-3.05-23.349-9.224l-19.447-19.447c-6.166-6.166-9.34-14.597-9.222-23.317a25.637 25.637 0 0 0-.383-4.741c-1.774-10.172-10.025-18.333-20.218-19.972-16.837-2.71-31.168 11.608-28.489 28.438 1.624 10.2 9.775 18.467 19.947 20.255 1.627.286 3.232.41 4.8.388 8.71-.127 17.128 3.063 23.287 9.222l18.619 18.62a34.323 34.323 0 0 1 10.054 24.357v.252c.044 8.758-2.949 17.252-9.142 23.444l-19.61 19.61c-6.193 6.194-14.688 9.185-23.445 9.142h-.251c-8.76.043-17.257-2.949-23.451-9.143l-19.61-19.61c-6.111-6.111-9.299-14.468-9.14-23.11a25.565 25.565 0 0 0-.38-4.867c-1.776-10.172-10.028-18.331-20.222-19.97-16.835-2.706-31.165 11.61-28.484 28.44 1.624 10.2 9.775 18.465 19.946 20.254a25.52 25.52 0 0 0 4.92.386c8.631-.167 16.978 3.035 23.083 9.14l19.62 19.622c6.115 6.114 9.294 14.475 9.14 23.12a25.596 25.596 0 0 0 .374 4.811c1.832 10.61 10.716 18.949 21.414 20.173 14.95 1.713 27.624-9.934 27.624-24.54v-.126c-.044-8.758 2.948-17.253 9.141-23.445l19.606-19.609c6.194-6.193 14.688-9.185 23.446-9.141h.127c14.612 0 26.262-12.684 24.538-27.642-1.232-10.7-9.581-19.578-20.195-21.4z" fill="#7f97bd"></path><path d="M213.425 179.34c-1.672-14.922 9.961-27.56 24.548-27.56h.125a34.33 34.33 0 0 0 24.36-10.054l18.616-18.616c6.169-6.17 9.336-14.605 9.223-23.328a25.618 25.618 0 0 1 .378-4.705c1.762-10.173 10.007-18.342 20.199-19.992 16.853-2.729 31.209 11.612 28.507 28.462-1.635 10.2-9.797 18.459-19.974 20.234-1.61.28-3.195.403-4.746.382-8.718-.119-17.147 3.057-23.312 9.222l-18.613 18.613a34.335 34.335 0 0 0-10.056 24.364v.25c-.044 8.76 2.949 17.258 9.143 23.452l19.61 19.609c6.12 6.12 14.49 9.286 23.143 9.14a25.592 25.592 0 0 1 4.789.373c10.178 1.755 18.355 9.998 20.009 20.192 2.736 16.866-11.62 31.232-28.483 28.514-10.198-1.644-18.451-9.813-20.216-19.99a25.543 25.543 0 0 1-.377-4.831c.155-8.645-3.026-17.006-9.14-23.12l-19.62-19.62c-6.105-6.106-14.452-9.308-23.084-9.142a25.444 25.444 0 0 1-4.892-.381c-10.612-1.853-18.938-10.761-20.137-21.467zm178.607 21.855c13.646 0 24.708-11.062 24.708-24.708 0-13.645-11.062-24.707-24.708-24.707-13.647 0-24.707 11.062-24.707 24.707 0 13.646 11.06 24.708 24.707 24.708z" fill="#efd143"></path></g></g></svg><style>@media (prefers-color-scheme: light) { :root { filter: none; } }
</style></svg>