<?xml version="1.0" standalone="no"?>
<!DOCTYPE svg PUBLIC "-//W3C//DTD SVG 20010904//EN"
 "http://www.w3.org/TR/2001/REC-SVG-20010904/DTD/svg10.dtd">
<svg version="1.0" xmlns="http://www.w3.org/2000/svg"
 width="605.000000pt" height="605.000000pt" viewBox="0 0 605.000000 605.000000"
 preserveAspectRatio="xMidYMid meet">
<metadata>
Created by potrace 1.14, written by Peter Selinger 2001-2017
</metadata>
<g transform="translate(0.000000,605.000000) scale(0.100000,-0.100000)"
fill="#000000" stroke="none">
<path d="M2930 4349 c-96 -43 -138 -113 -146 -239 -4 -57 -10 -82 -37 -140
-17 -34 -260 -276 -299 -296 -42 -22 -82 -33 -143 -40 -82 -9 -91 -11 -132
-33 -140 -71 -167 -258 -53 -372 49 -49 93 -66 192 -73 98 -7 153 -41 286
-173 162 -161 179 -189 188 -319 5 -73 23 -121 64 -167 72 -82 218 -101 303
-40 111 81 142 219 72 325 -48 72 -107 102 -223 112 -104 9 -154 39 -289 172
-157 156 -182 199 -187 329 -5 108 30 171 180 321 141 141 190 171 296 180 95
9 130 20 175 59 113 96 113 267 -1 360 -73 59 -163 72 -246 34z"/>
<path d="M2933 3612 c-61 -25 -106 -73 -133 -142 -9 -24 -16 -91 -9 -96 4 -2
5 -11 2 -20 -9 -24 37 -103 82 -138 51 -42 84 -53 171 -60 110 -9 148 -31 287
-169 160 -157 189 -209 192 -332 3 -115 -29 -170 -183 -324 -154 -151 -195
-174 -317 -175 -120 -1 -165 24 -312 170 -65 66 -128 133 -139 149 -27 39 -45
95 -49 153 -8 112 -25 153 -85 204 -153 132 -390 24 -390 -177 0 -67 22 -117
71 -166 48 -47 100 -69 163 -69 52 0 126 -20 158 -42 14 -10 30 -18 34 -18 4
0 66 -60 138 -133 146 -148 166 -184 173 -304 7 -148 105 -243 247 -243 76 0
162 54 203 127 14 24 19 49 28 137 3 33 11 69 17 80 6 12 10 21 9 21 -30 0
195 246 289 318 40 29 133 57 195 57 99 1 209 93 219 184 1 12 4 26 7 31 20
39 -51 204 -88 205 -7 0 -13 4 -13 8 0 14 -91 40 -160 47 -107 10 -154 38
-295 179 -146 145 -173 192 -181 307 -11 154 -88 237 -229 245 -41 3 -73 -2
-102 -14z"/>
<path d="M3681 3617 c-50 -16 -127 -96 -141 -147 -31 -114 4 -210 99 -274 64
-43 158 -48 228 -13 122 63 167 195 108 322 -44 96 -181 148 -294 112z"/>
</g>
</svg>
